<mxfile host="app.diagrams.net" modified="2022-03-22T09:59:59.334Z" agent="5.0 (Windows NT 10.0; WOW64) AppleWebKit/537.36 (KHTML, like Gecko) Chrome/75.0.3770.100 Safari/537.36" etag="VIC8SPPxuU-IhsbJLiMK" version="17.1.3" type="github" pages="4">
  <diagram id="vfCkrh1ifNnUNrH1NzL_" name="导入流程">
    <mxGraphModel dx="1838" dy="576" grid="0" gridSize="10" guides="1" tooltips="1" connect="1" arrows="1" fold="1" page="0" pageScale="1" pageWidth="827" pageHeight="1169" math="0" shadow="0">
      <root>
        <mxCell id="Bidk7HE_tn2U5wlt7Fp--0" />
        <mxCell id="Bidk7HE_tn2U5wlt7Fp--1" parent="Bidk7HE_tn2U5wlt7Fp--0" />
        <mxCell id="Bidk7HE_tn2U5wlt7Fp--4" value="" style="edgeStyle=orthogonalEdgeStyle;rounded=0;orthogonalLoop=1;jettySize=auto;html=1;" parent="Bidk7HE_tn2U5wlt7Fp--1" source="Bidk7HE_tn2U5wlt7Fp--2" target="Bidk7HE_tn2U5wlt7Fp--3" edge="1">
          <mxGeometry relative="1" as="geometry" />
        </mxCell>
        <mxCell id="Bidk7HE_tn2U5wlt7Fp--2" value="开始" style="strokeWidth=2;html=1;shape=mxgraph.flowchart.start_1;whiteSpace=wrap;" parent="Bidk7HE_tn2U5wlt7Fp--1" vertex="1">
          <mxGeometry x="-595" y="20" width="100" height="60" as="geometry" />
        </mxCell>
        <mxCell id="Bidk7HE_tn2U5wlt7Fp--6" value="" style="edgeStyle=orthogonalEdgeStyle;rounded=0;orthogonalLoop=1;jettySize=auto;html=1;" parent="Bidk7HE_tn2U5wlt7Fp--1" source="Bidk7HE_tn2U5wlt7Fp--3" target="Bidk7HE_tn2U5wlt7Fp--5" edge="1">
          <mxGeometry relative="1" as="geometry" />
        </mxCell>
        <mxCell id="Bidk7HE_tn2U5wlt7Fp--3" value="点击XX导入" style="whiteSpace=wrap;html=1;strokeWidth=2;" parent="Bidk7HE_tn2U5wlt7Fp--1" vertex="1">
          <mxGeometry x="-605" y="140" width="120" height="60" as="geometry" />
        </mxCell>
        <mxCell id="Bidk7HE_tn2U5wlt7Fp--14" value="" style="edgeStyle=orthogonalEdgeStyle;rounded=0;orthogonalLoop=1;jettySize=auto;html=1;" parent="Bidk7HE_tn2U5wlt7Fp--1" source="Bidk7HE_tn2U5wlt7Fp--5" target="Bidk7HE_tn2U5wlt7Fp--13" edge="1">
          <mxGeometry relative="1" as="geometry" />
        </mxCell>
        <mxCell id="Bidk7HE_tn2U5wlt7Fp--16" value="" style="edgeStyle=orthogonalEdgeStyle;rounded=0;orthogonalLoop=1;jettySize=auto;html=1;" parent="Bidk7HE_tn2U5wlt7Fp--1" source="Bidk7HE_tn2U5wlt7Fp--5" target="Bidk7HE_tn2U5wlt7Fp--15" edge="1">
          <mxGeometry relative="1" as="geometry" />
        </mxCell>
        <mxCell id="Bidk7HE_tn2U5wlt7Fp--5" value="弹出导入页面，页面包含模板下载和文件上传" style="whiteSpace=wrap;html=1;strokeWidth=2;" parent="Bidk7HE_tn2U5wlt7Fp--1" vertex="1">
          <mxGeometry x="-605" y="260" width="120" height="60" as="geometry" />
        </mxCell>
        <mxCell id="Bidk7HE_tn2U5wlt7Fp--13" value="下载模板" style="whiteSpace=wrap;html=1;strokeWidth=2;" parent="Bidk7HE_tn2U5wlt7Fp--1" vertex="1">
          <mxGeometry x="-740" y="380" width="120" height="60" as="geometry" />
        </mxCell>
        <mxCell id="Bidk7HE_tn2U5wlt7Fp--18" value="" style="edgeStyle=orthogonalEdgeStyle;rounded=0;orthogonalLoop=1;jettySize=auto;html=1;" parent="Bidk7HE_tn2U5wlt7Fp--1" source="Bidk7HE_tn2U5wlt7Fp--15" target="Bidk7HE_tn2U5wlt7Fp--17" edge="1">
          <mxGeometry relative="1" as="geometry" />
        </mxCell>
        <mxCell id="Bidk7HE_tn2U5wlt7Fp--15" value="上传导入文件" style="whiteSpace=wrap;html=1;strokeWidth=2;" parent="Bidk7HE_tn2U5wlt7Fp--1" vertex="1">
          <mxGeometry x="-470" y="380" width="120" height="60" as="geometry" />
        </mxCell>
        <mxCell id="Bidk7HE_tn2U5wlt7Fp--20" value="" style="edgeStyle=orthogonalEdgeStyle;rounded=0;orthogonalLoop=1;jettySize=auto;html=1;" parent="Bidk7HE_tn2U5wlt7Fp--1" source="Bidk7HE_tn2U5wlt7Fp--17" target="Bidk7HE_tn2U5wlt7Fp--19" edge="1">
          <mxGeometry relative="1" as="geometry" />
        </mxCell>
        <mxCell id="Bidk7HE_tn2U5wlt7Fp--17" value="校验文档格式" style="rhombus;whiteSpace=wrap;html=1;strokeWidth=2;" parent="Bidk7HE_tn2U5wlt7Fp--1" vertex="1">
          <mxGeometry x="-450" y="510" width="80" height="80" as="geometry" />
        </mxCell>
        <mxCell id="Bidk7HE_tn2U5wlt7Fp--24" value="" style="edgeStyle=orthogonalEdgeStyle;rounded=0;orthogonalLoop=1;jettySize=auto;html=1;" parent="Bidk7HE_tn2U5wlt7Fp--1" source="Bidk7HE_tn2U5wlt7Fp--19" target="Bidk7HE_tn2U5wlt7Fp--23" edge="1">
          <mxGeometry relative="1" as="geometry" />
        </mxCell>
        <mxCell id="Bidk7HE_tn2U5wlt7Fp--27" style="edgeStyle=orthogonalEdgeStyle;rounded=0;orthogonalLoop=1;jettySize=auto;html=1;entryX=0.5;entryY=0;entryDx=0;entryDy=0;" parent="Bidk7HE_tn2U5wlt7Fp--1" source="Bidk7HE_tn2U5wlt7Fp--19" target="Bidk7HE_tn2U5wlt7Fp--25" edge="1">
          <mxGeometry relative="1" as="geometry" />
        </mxCell>
        <mxCell id="18sy-mXYtufWjTI3ke56-25" value="输出错误" style="edgeLabel;html=1;align=center;verticalAlign=middle;resizable=0;points=[];fontColor=default;" parent="Bidk7HE_tn2U5wlt7Fp--27" vertex="1" connectable="0">
          <mxGeometry x="-0.4656" y="-4" relative="1" as="geometry">
            <mxPoint as="offset" />
          </mxGeometry>
        </mxCell>
        <mxCell id="Bidk7HE_tn2U5wlt7Fp--19" value="校验数据格式" style="rhombus;whiteSpace=wrap;html=1;strokeWidth=2;" parent="Bidk7HE_tn2U5wlt7Fp--1" vertex="1">
          <mxGeometry x="-450" y="620" width="80" height="80" as="geometry" />
        </mxCell>
        <mxCell id="Bidk7HE_tn2U5wlt7Fp--26" value="" style="edgeStyle=orthogonalEdgeStyle;rounded=0;orthogonalLoop=1;jettySize=auto;html=1;" parent="Bidk7HE_tn2U5wlt7Fp--1" source="Bidk7HE_tn2U5wlt7Fp--23" target="Bidk7HE_tn2U5wlt7Fp--25" edge="1">
          <mxGeometry relative="1" as="geometry" />
        </mxCell>
        <mxCell id="Bidk7HE_tn2U5wlt7Fp--23" value="推送业务系统，&lt;br&gt;记录本地数据库，&lt;br&gt;记录变更日志" style="whiteSpace=wrap;html=1;strokeWidth=2;" parent="Bidk7HE_tn2U5wlt7Fp--1" vertex="1">
          <mxGeometry x="-470" y="890" width="120" height="60" as="geometry" />
        </mxCell>
        <mxCell id="Bidk7HE_tn2U5wlt7Fp--29" value="" style="edgeStyle=orthogonalEdgeStyle;rounded=0;orthogonalLoop=1;jettySize=auto;html=1;" parent="Bidk7HE_tn2U5wlt7Fp--1" source="Bidk7HE_tn2U5wlt7Fp--25" target="Bidk7HE_tn2U5wlt7Fp--28" edge="1">
          <mxGeometry relative="1" as="geometry" />
        </mxCell>
        <mxCell id="Bidk7HE_tn2U5wlt7Fp--25" value="出错误Excel，供下载" style="whiteSpace=wrap;html=1;strokeWidth=2;" parent="Bidk7HE_tn2U5wlt7Fp--1" vertex="1">
          <mxGeometry x="-670" y="890" width="120" height="60" as="geometry" />
        </mxCell>
        <mxCell id="Bidk7HE_tn2U5wlt7Fp--28" value="结束" style="ellipse;whiteSpace=wrap;html=1;strokeWidth=2;" parent="Bidk7HE_tn2U5wlt7Fp--1" vertex="1">
          <mxGeometry x="-670" y="1000" width="120" height="60" as="geometry" />
        </mxCell>
        <mxCell id="Bidk7HE_tn2U5wlt7Fp--30" value="账号批量推送导入" style="swimlane;fontColor=default;labelBackgroundColor=default;" parent="Bidk7HE_tn2U5wlt7Fp--1" vertex="1">
          <mxGeometry x="-290" y="10" width="550" height="364" as="geometry" />
        </mxCell>
        <mxCell id="Bidk7HE_tn2U5wlt7Fp--31" value="模板" style="swimlane;fontStyle=0;childLayout=stackLayout;horizontal=1;startSize=26;fillColor=none;horizontalStack=0;resizeParent=1;resizeParentMax=0;resizeLast=0;collapsible=1;marginBottom=0;" parent="Bidk7HE_tn2U5wlt7Fp--30" vertex="1">
          <mxGeometry x="30" y="40" width="140" height="78" as="geometry" />
        </mxCell>
        <mxCell id="Bidk7HE_tn2U5wlt7Fp--32" value="账号名" style="text;strokeColor=none;fillColor=none;align=left;verticalAlign=top;spacingLeft=4;spacingRight=4;overflow=hidden;rotatable=0;points=[[0,0.5],[1,0.5]];portConstraint=eastwest;" parent="Bidk7HE_tn2U5wlt7Fp--31" vertex="1">
          <mxGeometry y="26" width="140" height="26" as="geometry" />
        </mxCell>
        <mxCell id="Bidk7HE_tn2U5wlt7Fp--33" value="应用系统编码" style="text;strokeColor=none;fillColor=none;align=left;verticalAlign=top;spacingLeft=4;spacingRight=4;overflow=hidden;rotatable=0;points=[[0,0.5],[1,0.5]];portConstraint=eastwest;" parent="Bidk7HE_tn2U5wlt7Fp--31" vertex="1">
          <mxGeometry y="52" width="140" height="26" as="geometry" />
        </mxCell>
        <mxCell id="18sy-mXYtufWjTI3ke56-0" value="校验规则：&lt;br&gt;1、数据去除两边空格&lt;br&gt;2、校验输入账号是否存在&lt;br&gt;3、校验输入账号状态是否为可用账号（非离职状态）&lt;br&gt;4、校验系统编码是否存在&lt;br&gt;5、校验系统是否处于可用状态（非下线）" style="shape=note;whiteSpace=wrap;html=1;backgroundOutline=1;darkOpacity=0.05;align=left;size=25;" parent="Bidk7HE_tn2U5wlt7Fp--30" vertex="1">
          <mxGeometry x="263" y="37" width="247" height="120" as="geometry" />
        </mxCell>
        <mxCell id="18sy-mXYtufWjTI3ke56-1" value="结果：&lt;br&gt;1、根据校验规则提示&lt;br&gt;2、根绝推送结果提示&lt;br&gt;" style="shape=note;whiteSpace=wrap;html=1;backgroundOutline=1;darkOpacity=0.05;align=left;size=22;" parent="Bidk7HE_tn2U5wlt7Fp--30" vertex="1">
          <mxGeometry x="271" y="305" width="254" height="51" as="geometry" />
        </mxCell>
        <mxCell id="18sy-mXYtufWjTI3ke56-16" value="处理规则：&lt;br&gt;1、校验数据&lt;br&gt;2、若对应系统存在账号同步接口，则同步数据到业务系统；若账号缺失信息，则提示失败，要求管理员页面配置用户关联信息。" style="shape=note;whiteSpace=wrap;html=1;backgroundOutline=1;darkOpacity=0.05;labelBackgroundColor=default;fontColor=default;size=22;align=left;" parent="Bidk7HE_tn2U5wlt7Fp--30" vertex="1">
          <mxGeometry x="265" y="173" width="254" height="113" as="geometry" />
        </mxCell>
        <mxCell id="Bidk7HE_tn2U5wlt7Fp--36" value="结果反馈（只展示失败）" style="swimlane;fontStyle=0;childLayout=stackLayout;horizontal=1;startSize=26;fillColor=none;horizontalStack=0;resizeParent=1;resizeParentMax=0;resizeLast=0;collapsible=1;marginBottom=0;" parent="Bidk7HE_tn2U5wlt7Fp--30" vertex="1">
          <mxGeometry x="30" y="173" width="180" height="104" as="geometry" />
        </mxCell>
        <mxCell id="Bidk7HE_tn2U5wlt7Fp--37" value="账号名" style="text;strokeColor=none;fillColor=none;align=left;verticalAlign=top;spacingLeft=4;spacingRight=4;overflow=hidden;rotatable=0;points=[[0,0.5],[1,0.5]];portConstraint=eastwest;" parent="Bidk7HE_tn2U5wlt7Fp--36" vertex="1">
          <mxGeometry y="26" width="180" height="26" as="geometry" />
        </mxCell>
        <mxCell id="Bidk7HE_tn2U5wlt7Fp--38" value="应用系统标识" style="text;strokeColor=none;fillColor=none;align=left;verticalAlign=top;spacingLeft=4;spacingRight=4;overflow=hidden;rotatable=0;points=[[0,0.5],[1,0.5]];portConstraint=eastwest;" parent="Bidk7HE_tn2U5wlt7Fp--36" vertex="1">
          <mxGeometry y="52" width="180" height="26" as="geometry" />
        </mxCell>
        <mxCell id="18sy-mXYtufWjTI3ke56-2" value="错误信息" style="text;strokeColor=none;fillColor=none;align=left;verticalAlign=top;spacingLeft=4;spacingRight=4;overflow=hidden;rotatable=0;points=[[0,0.5],[1,0.5]];portConstraint=eastwest;" parent="Bidk7HE_tn2U5wlt7Fp--36" vertex="1">
          <mxGeometry y="78" width="180" height="26" as="geometry" />
        </mxCell>
        <mxCell id="18sy-mXYtufWjTI3ke56-23" style="edgeStyle=orthogonalEdgeStyle;rounded=0;orthogonalLoop=1;jettySize=auto;html=1;entryX=0.5;entryY=0;entryDx=0;entryDy=0;fontColor=default;" parent="Bidk7HE_tn2U5wlt7Fp--1" source="Bidk7HE_tn2U5wlt7Fp--40" target="Bidk7HE_tn2U5wlt7Fp--25" edge="1">
          <mxGeometry relative="1" as="geometry" />
        </mxCell>
        <mxCell id="18sy-mXYtufWjTI3ke56-24" value="输出错误" style="edgeLabel;html=1;align=center;verticalAlign=middle;resizable=0;points=[];fontColor=default;" parent="18sy-mXYtufWjTI3ke56-23" vertex="1" connectable="0">
          <mxGeometry x="-0.2831" y="1" relative="1" as="geometry">
            <mxPoint as="offset" />
          </mxGeometry>
        </mxCell>
        <mxCell id="Bidk7HE_tn2U5wlt7Fp--40" value="校验数据合法性" style="rhombus;whiteSpace=wrap;html=1;strokeWidth=2;" parent="Bidk7HE_tn2U5wlt7Fp--1" vertex="1">
          <mxGeometry x="-450" y="750" width="80" height="80" as="geometry" />
        </mxCell>
        <mxCell id="18sy-mXYtufWjTI3ke56-3" value="授权批量导入" style="swimlane;fontColor=default;labelBackgroundColor=default;" parent="Bidk7HE_tn2U5wlt7Fp--1" vertex="1">
          <mxGeometry x="-290" y="431" width="550" height="487" as="geometry" />
        </mxCell>
        <mxCell id="18sy-mXYtufWjTI3ke56-7" value="校验规则：&lt;br&gt;1、数据去除两边空格&lt;br&gt;2、校验输入账号是否存在&lt;br&gt;3、校验输入账号状态是否为可用账号（非离职状态）&lt;br&gt;4、校验角色编码是否存在&lt;br&gt;5、校验系统是否处于可用状态（非下线）" style="shape=note;whiteSpace=wrap;html=1;backgroundOutline=1;darkOpacity=0.05;align=left;size=25;" parent="18sy-mXYtufWjTI3ke56-3" vertex="1">
          <mxGeometry x="318" y="54" width="190" height="120" as="geometry" />
        </mxCell>
        <mxCell id="18sy-mXYtufWjTI3ke56-8" value="结果：&lt;br&gt;1、根据校验规则提示&lt;br&gt;2、根绝推送结果，错误信息反馈到Excel中。" style="shape=note;whiteSpace=wrap;html=1;backgroundOutline=1;darkOpacity=0.05;align=left;" parent="18sy-mXYtufWjTI3ke56-3" vertex="1">
          <mxGeometry x="299.5" y="342" width="188" height="103" as="geometry" />
        </mxCell>
        <mxCell id="18sy-mXYtufWjTI3ke56-9" value="结果反馈（只展示失败）" style="swimlane;fontStyle=0;childLayout=stackLayout;horizontal=1;startSize=26;fillColor=none;horizontalStack=0;resizeParent=1;resizeParentMax=0;resizeLast=0;collapsible=1;marginBottom=0;" parent="18sy-mXYtufWjTI3ke56-3" vertex="1">
          <mxGeometry x="44" y="200" width="180" height="130" as="geometry" />
        </mxCell>
        <mxCell id="18sy-mXYtufWjTI3ke56-10" value="账号名" style="text;strokeColor=none;fillColor=none;align=left;verticalAlign=top;spacingLeft=4;spacingRight=4;overflow=hidden;rotatable=0;points=[[0,0.5],[1,0.5]];portConstraint=eastwest;" parent="18sy-mXYtufWjTI3ke56-9" vertex="1">
          <mxGeometry y="26" width="180" height="26" as="geometry" />
        </mxCell>
        <mxCell id="18sy-mXYtufWjTI3ke56-11" value="角色编码" style="text;strokeColor=none;fillColor=none;align=left;verticalAlign=top;spacingLeft=4;spacingRight=4;overflow=hidden;rotatable=0;points=[[0,0.5],[1,0.5]];portConstraint=eastwest;" parent="18sy-mXYtufWjTI3ke56-9" vertex="1">
          <mxGeometry y="52" width="180" height="26" as="geometry" />
        </mxCell>
        <mxCell id="18sy-mXYtufWjTI3ke56-20" value="管理区域编码" style="text;strokeColor=none;fillColor=none;align=left;verticalAlign=top;spacingLeft=4;spacingRight=4;overflow=hidden;rotatable=0;points=[[0,0.5],[1,0.5]];portConstraint=eastwest;" parent="18sy-mXYtufWjTI3ke56-9" vertex="1">
          <mxGeometry y="78" width="180" height="26" as="geometry" />
        </mxCell>
        <mxCell id="18sy-mXYtufWjTI3ke56-12" value="错误信息" style="text;strokeColor=none;fillColor=none;align=left;verticalAlign=top;spacingLeft=4;spacingRight=4;overflow=hidden;rotatable=0;points=[[0,0.5],[1,0.5]];portConstraint=eastwest;" parent="18sy-mXYtufWjTI3ke56-9" vertex="1">
          <mxGeometry y="104" width="180" height="26" as="geometry" />
        </mxCell>
        <mxCell id="18sy-mXYtufWjTI3ke56-4" value="模板" style="swimlane;fontStyle=0;childLayout=stackLayout;horizontal=1;startSize=26;fillColor=none;horizontalStack=0;resizeParent=1;resizeParentMax=0;resizeLast=0;collapsible=1;marginBottom=0;" parent="18sy-mXYtufWjTI3ke56-3" vertex="1">
          <mxGeometry x="44" y="54" width="140" height="104" as="geometry" />
        </mxCell>
        <mxCell id="18sy-mXYtufWjTI3ke56-5" value="账号名（必填）" style="text;strokeColor=none;fillColor=none;align=left;verticalAlign=top;spacingLeft=4;spacingRight=4;overflow=hidden;rotatable=0;points=[[0,0.5],[1,0.5]];portConstraint=eastwest;" parent="18sy-mXYtufWjTI3ke56-4" vertex="1">
          <mxGeometry y="26" width="140" height="26" as="geometry" />
        </mxCell>
        <mxCell id="18sy-mXYtufWjTI3ke56-15" value="角色编码（必填）" style="text;strokeColor=none;fillColor=none;align=left;verticalAlign=top;spacingLeft=4;spacingRight=4;overflow=hidden;rotatable=0;points=[[0,0.5],[1,0.5]];portConstraint=eastwest;" parent="18sy-mXYtufWjTI3ke56-4" vertex="1">
          <mxGeometry y="52" width="140" height="26" as="geometry" />
        </mxCell>
        <mxCell id="18sy-mXYtufWjTI3ke56-21" value="管理区域编码（非必填）" style="text;strokeColor=none;fillColor=none;align=left;verticalAlign=top;spacingLeft=4;spacingRight=4;overflow=hidden;rotatable=0;points=[[0,0.5],[1,0.5]];portConstraint=eastwest;" parent="18sy-mXYtufWjTI3ke56-4" vertex="1">
          <mxGeometry y="78" width="140" height="26" as="geometry" />
        </mxCell>
        <mxCell id="18sy-mXYtufWjTI3ke56-22" value="处理规则：&lt;br&gt;1、校验数据&lt;br&gt;2、若角色属于资源系统角色，则管理区域编码必填。&lt;br&gt;3、若对方系统存在授权同步接口，这同步到业务系统，并保存到本地数据库。" style="shape=note;whiteSpace=wrap;html=1;backgroundOutline=1;darkOpacity=0.05;labelBackgroundColor=default;fontColor=default;size=22;align=left;" parent="18sy-mXYtufWjTI3ke56-3" vertex="1">
          <mxGeometry x="299.5" y="200" width="227" height="113" as="geometry" />
        </mxCell>
      </root>
    </mxGraphModel>
  </diagram>
  <diagram id="C5RBs43oDa-KdzZeNtuy" name="账号责任人流程">
    <mxGraphModel dx="1038" dy="576" grid="1" gridSize="10" guides="1" tooltips="1" connect="1" arrows="1" fold="1" page="1" pageScale="1" pageWidth="827" pageHeight="1169" math="0" shadow="0">
      <root>
        <mxCell id="WIyWlLk6GJQsqaUBKTNV-0" />
        <mxCell id="WIyWlLk6GJQsqaUBKTNV-1" parent="WIyWlLk6GJQsqaUBKTNV-0" />
      </root>
    </mxGraphModel>
  </diagram>
  <diagram id="RnBe9GcKYsKqGInEGhTH" name="第 3 页">
    <mxGraphModel dx="1038" dy="576" grid="1" gridSize="10" guides="1" tooltips="1" connect="1" arrows="1" fold="1" page="1" pageScale="1" pageWidth="827" pageHeight="1169" math="0" shadow="0">
      <root>
        <mxCell id="BgiwrJlkjgOAgJ2d6CEg-0" />
        <mxCell id="BgiwrJlkjgOAgJ2d6CEg-1" parent="BgiwrJlkjgOAgJ2d6CEg-0" />
        <mxCell id="BgiwrJlkjgOAgJ2d6CEg-4" style="edgeStyle=orthogonalEdgeStyle;rounded=0;orthogonalLoop=1;jettySize=auto;html=1;entryX=0.5;entryY=0;entryDx=0;entryDy=0;" parent="BgiwrJlkjgOAgJ2d6CEg-1" source="BgiwrJlkjgOAgJ2d6CEg-2" target="BgiwrJlkjgOAgJ2d6CEg-3" edge="1">
          <mxGeometry relative="1" as="geometry" />
        </mxCell>
        <mxCell id="BgiwrJlkjgOAgJ2d6CEg-2" value="开始" style="ellipse;whiteSpace=wrap;html=1;" parent="BgiwrJlkjgOAgJ2d6CEg-1" vertex="1">
          <mxGeometry x="180" y="150" width="80" height="40" as="geometry" />
        </mxCell>
        <mxCell id="BgiwrJlkjgOAgJ2d6CEg-6" value="" style="edgeStyle=orthogonalEdgeStyle;rounded=0;orthogonalLoop=1;jettySize=auto;html=1;entryX=0.5;entryY=0;entryDx=0;entryDy=0;" parent="BgiwrJlkjgOAgJ2d6CEg-1" source="BgiwrJlkjgOAgJ2d6CEg-3" target="BgiwrJlkjgOAgJ2d6CEg-9" edge="1">
          <mxGeometry relative="1" as="geometry">
            <mxPoint x="220" y="370" as="targetPoint" />
          </mxGeometry>
        </mxCell>
        <mxCell id="BgiwrJlkjgOAgJ2d6CEg-3" value="page1：4A登录页面" style="rounded=1;whiteSpace=wrap;html=1;fillColor=#dae8fc;strokeColor=#6c8ebf;" parent="BgiwrJlkjgOAgJ2d6CEg-1" vertex="1">
          <mxGeometry x="160" y="250" width="120" height="60" as="geometry" />
        </mxCell>
        <mxCell id="BgiwrJlkjgOAgJ2d6CEg-8" value="" style="edgeStyle=orthogonalEdgeStyle;rounded=0;orthogonalLoop=1;jettySize=auto;html=1;exitX=0.5;exitY=1;exitDx=0;exitDy=0;" parent="BgiwrJlkjgOAgJ2d6CEg-1" source="BgiwrJlkjgOAgJ2d6CEg-9" target="BgiwrJlkjgOAgJ2d6CEg-7" edge="1">
          <mxGeometry relative="1" as="geometry">
            <mxPoint x="220" y="450" as="sourcePoint" />
          </mxGeometry>
        </mxCell>
        <mxCell id="BgiwrJlkjgOAgJ2d6CEg-7" value="page2：发送短信页面&lt;br&gt;需要获取session中用户信息，并向此用户对应手机号发送短信" style="whiteSpace=wrap;html=1;rounded=1;fillColor=#dae8fc;strokeColor=#6c8ebf;" parent="BgiwrJlkjgOAgJ2d6CEg-1" vertex="1">
          <mxGeometry x="150" y="510" width="140" height="80" as="geometry" />
        </mxCell>
        <mxCell id="BgiwrJlkjgOAgJ2d6CEg-9" value="&lt;span&gt;输入账号、密码；校验通过后将用户信息放入session中，跳转到发送短信页面&lt;/span&gt;" style="rounded=1;whiteSpace=wrap;html=1;absoluteArcSize=1;arcSize=14;strokeWidth=2;" parent="BgiwrJlkjgOAgJ2d6CEg-1" vertex="1">
          <mxGeometry x="163" y="360" width="114" height="100" as="geometry" />
        </mxCell>
      </root>
    </mxGraphModel>
  </diagram>
  <diagram id="GOLI6SR4uLOKp-6XtRRp" name="日志转存流程">
    <mxGraphModel dx="1038" dy="576" grid="1" gridSize="10" guides="1" tooltips="1" connect="1" arrows="1" fold="1" page="1" pageScale="1" pageWidth="827" pageHeight="1169" math="0" shadow="0">
      <root>
        <mxCell id="ZbSZYwue5zcamcTj-38W-0" />
        <mxCell id="ZbSZYwue5zcamcTj-38W-1" parent="ZbSZYwue5zcamcTj-38W-0" />
        <mxCell id="ZbSZYwue5zcamcTj-38W-9" style="edgeStyle=orthogonalEdgeStyle;rounded=0;orthogonalLoop=1;jettySize=auto;html=1;entryX=0.5;entryY=0;entryDx=0;entryDy=0;" edge="1" parent="ZbSZYwue5zcamcTj-38W-1" source="ZbSZYwue5zcamcTj-38W-2" target="ZbSZYwue5zcamcTj-38W-10">
          <mxGeometry relative="1" as="geometry">
            <mxPoint x="290" y="320" as="targetPoint" />
          </mxGeometry>
        </mxCell>
        <mxCell id="ZbSZYwue5zcamcTj-38W-2" value="ORACLE&lt;br&gt;数据库" style="strokeWidth=2;html=1;shape=mxgraph.flowchart.database;whiteSpace=wrap;" vertex="1" parent="ZbSZYwue5zcamcTj-38W-1">
          <mxGeometry x="220" y="80" width="140" height="90" as="geometry" />
        </mxCell>
        <mxCell id="ZbSZYwue5zcamcTj-38W-3" value="ES" style="shape=parallelogram;html=1;strokeWidth=2;perimeter=parallelogramPerimeter;whiteSpace=wrap;rounded=1;arcSize=12;size=0.23;" vertex="1" parent="ZbSZYwue5zcamcTj-38W-1">
          <mxGeometry x="570" y="425" width="100" height="60" as="geometry" />
        </mxCell>
        <mxCell id="ZbSZYwue5zcamcTj-38W-8" style="edgeStyle=orthogonalEdgeStyle;rounded=0;orthogonalLoop=1;jettySize=auto;html=1;exitX=1;exitY=0.5;exitDx=0;exitDy=0;" edge="1" parent="ZbSZYwue5zcamcTj-38W-1" source="ZbSZYwue5zcamcTj-38W-10" target="ZbSZYwue5zcamcTj-38W-3">
          <mxGeometry relative="1" as="geometry">
            <mxPoint x="340" y="370" as="sourcePoint" />
          </mxGeometry>
        </mxCell>
        <mxCell id="ZbSZYwue5zcamcTj-38W-10" value="日志转存服务" style="swimlane;" vertex="1" parent="ZbSZYwue5zcamcTj-38W-1">
          <mxGeometry x="190" y="270" width="200" height="370" as="geometry" />
        </mxCell>
        <mxCell id="ZbSZYwue5zcamcTj-38W-12" value="每天凌晨两点获取前一天日志" style="rounded=1;whiteSpace=wrap;html=1;" vertex="1" parent="ZbSZYwue5zcamcTj-38W-10">
          <mxGeometry x="40" y="40" width="120" height="60" as="geometry" />
        </mxCell>
      </root>
    </mxGraphModel>
  </diagram>
</mxfile>
